 http://img7.imageshack.us/img7/5461/inhert.jpg

Country.......: USA
Genre.........: Thriller
Date release..: 2011 [World]
Director......: Robert O Hara
Writers.......: Robert O Hara
Duration......: 85 min.
More..........: http://www.imdb.com/title/tt1342115
Trailer.......: http://www.imdb.com/video/screenplay/vi3608058393
Trailer.......:

Pilot :
Five ambitious relatives arrives at a family reunion, to inherit the accumulated drop by our ancestors for many generations. But be warned in advance to respect family tradition. For a weekend stay to discover the truth about his heritage and the sacrifice they must submit to receive the coveted fall.

Cats :
Rochelle Aytes   	 ...  	Lily
Golden Brooks 	... 	Karen
Janae Burney 	... 	Ancestor Girl
Keith David 	... 	Uncle Melvin
Andre De Shields 	... 	Uncle Grady
Demetrius Grosse 	... 	Ancestor Henry
Darrin Dewitt Henson 	... 	Tyrone
Shawn Michael Howard 	... 	Simpson
Lanre Idewu 	... 	Chakabazz
Adriane Lenox 	... 	Felicia
Johntae Lipscomb 	... 	Ancestor Boy
Chaz Monet 	... 	Ancestor Karen
Edward Nattenberg 	... 	Martin
Novella Nelson 	... 	Aunt Bee
Jenny Weaver 	... 	Julie 

Data Technical :
!!! SAMPLE !!!
Audio.....: English
Subtitles.: None
Format                           : AVI
Format/Info                      : Audio Video Interleave
File size                        : 701 MiB
Duration                         : 1h 24mn
Overall bit rate                 : 1 159 Kbps
Writing application              : Nandub v1.0rc2
Writing library                  : Nandub build 1852/release
Video
ID                               : 0
Format                           : MPEG-4 Visual
Format profile                   : Advanced Simple@L5
Format settings, BVOP            : Yes
Format settings, QPel            : No
Format settings, GMC             : No warppoints
Format settings, Matrix          : Default (H.263)
Codec ID                         : XVID
Codec ID/Hint                    : XviD
Duration                         : 1h 24mn
Bit rate                         : 829 Kbps
Width                            : 624 pixels
Height                           : 336 pixels
Display aspect ratio             : 1.857
Frame rate                       : 23.976 fps
Color space                      : YUV
Chroma subsampling               : 4:2:0
Bit depth                        : 8 bits
Scan type                        : Progressive
Bits/(Pixel*Frame)               : 0.165
Stream size                      : 502 MiB (72%)
Writing library                  : XviD 1.2.1 (UTC 2008-12-04)
Audio
ID                               : 1
Format                           : AC-3
Format/Info                      : Audio Coding 3
Mode extension                   : CM (complete main)
Codec ID                         : 2000
Duration                         : 1h 24mn
Bit rate mode                    : Constant
Bit rate                         : 320 Kbps
Channel(s)                       : 6 channels
Channel positions                : Front: L C R, Side: L R, LFE
Sampling rate                    : 48.0 KHz
Bit depth                        : 16 bits
Video delay                      : 500ms
Stream size                      : 194 MiB (28%)
Alignment                        : Split accross interleaves
Interleave, duration             : 42 ms (1.00 video frame)
Interleave, preload duration     : 500 ms

Screen : 
http://img841.imageshack.us/img841/6942/theinheritance2011s1.jpg 
http://img534.imageshack.us/img534/4748/theinheritance2011s2.jpg 
http://img192.imageshack.us/img192/3889/theinheritance2011s3.jpg 
http://img153.imageshack.us/img153/4569/theinheritance2011s4.jpg 
http://img855.imageshack.us/img855/4669/theinheritance2011s5.jpg